<svg xmlns="http://www.w3.org/2000/svg" viewBox="0 0 200 200" role="img" aria-label="1 to 100 Advisors app icon">
  <defs>
    <linearGradient id="bars-ad" x1="0" y1="0" x2="0" y2="1">
      <stop offset="0" stop-color="#f4f6f8"/>
      <stop offset="1" stop-color="#7d8794"/>
    </linearGradient>
  </defs>
  <!-- Rounded-square dark tile -->
  <rect x="4" y="4" width="192" height="192" rx="44" ry="44"
        fill="#1a2332" stroke="#ffffff" stroke-width="3"/>
  <!-- Icon centered, scaled to fit the tile -->
  <g transform="translate(40, 40) scale(1.0)">
    <g stroke="#ffffff" stroke-width="5" fill="none" stroke-linecap="round" stroke-linejoin="round">
      <path d="M 70 13 A 48 48 0 1 1 50 13"/>
      <path d="M 50 13 L 44 9 M 50 13 L 50 21"/>
    </g>
    <g fill="url(#bars-ad)">
      <rect x="34" y="72" width="11" height="22" rx="1"/>
      <rect x="48" y="62" width="11" height="32" rx="1"/>
      <rect x="62" y="50" width="11" height="44" rx="1"/>
      <rect x="76" y="38" width="11" height="56" rx="1"/>
    </g>
    <g stroke="#3b95ee" stroke-width="4" fill="none" stroke-linecap="round" stroke-linejoin="round">
      <path d="M 28 82 Q 50 70 86 32"/>
      <path d="M 86 32 L 74 32 M 86 32 L 86 44"/>
    </g>
  </g>
</svg>
